<mxfile host="app.diagrams.net" agent="Mozilla/5.0 (Windows NT 10.0; Win64; x64) AppleWebKit/537.36 (KHTML, like Gecko) Chrome/130.0.0.0 Safari/537.36" version="24.8.0">
  <diagram name="Página-1" id="VQzYdQzcV9R4RK3oKas_">
    <mxGraphModel dx="2261" dy="772" grid="1" gridSize="10" guides="1" tooltips="1" connect="1" arrows="1" fold="1" page="1" pageScale="1" pageWidth="827" pageHeight="1169" math="0" shadow="0">
      <root>
        <mxCell id="0" />
        <mxCell id="1" parent="0" />
        <mxCell id="Iw8bfR4sa_wHzvGIG2jI-1" value="Refugio" style="rounded=0;whiteSpace=wrap;html=1;fillColor=#e1d5e7;strokeColor=#9673a6;" vertex="1" parent="1">
          <mxGeometry x="160" y="160" width="120" height="60" as="geometry" />
        </mxCell>
        <mxCell id="Iw8bfR4sa_wHzvGIG2jI-2" value="Nombre" style="ellipse;whiteSpace=wrap;html=1;aspect=fixed;fillColor=#e1d5e7;strokeColor=#9673a6;" vertex="1" parent="1">
          <mxGeometry x="130" y="30" width="80" height="80" as="geometry" />
        </mxCell>
        <mxCell id="Iw8bfR4sa_wHzvGIG2jI-3" value="ID" style="ellipse;whiteSpace=wrap;html=1;aspect=fixed;fillColor=#76608a;strokeColor=#432D57;fontColor=#ffffff;" vertex="1" parent="1">
          <mxGeometry x="40" y="100" width="80" height="80" as="geometry" />
        </mxCell>
        <mxCell id="Iw8bfR4sa_wHzvGIG2jI-4" value="Dirección" style="ellipse;whiteSpace=wrap;html=1;aspect=fixed;fillColor=#e1d5e7;strokeColor=#9673a6;" vertex="1" parent="1">
          <mxGeometry x="230" y="30" width="80" height="80" as="geometry" />
        </mxCell>
        <mxCell id="Iw8bfR4sa_wHzvGIG2jI-5" value="&lt;font style=&quot;font-size: 9px;&quot;&gt;Georeferenciación&lt;/font&gt;" style="ellipse;whiteSpace=wrap;html=1;aspect=fixed;fillColor=#e1d5e7;strokeColor=#9673a6;" vertex="1" parent="1">
          <mxGeometry x="300" y="150" width="80" height="80" as="geometry" />
        </mxCell>
        <mxCell id="Iw8bfR4sa_wHzvGIG2jI-7" value="Latitud" style="ellipse;whiteSpace=wrap;html=1;aspect=fixed;fillColor=#e1d5e7;strokeColor=#9673a6;" vertex="1" parent="1">
          <mxGeometry x="400" y="100" width="80" height="80" as="geometry" />
        </mxCell>
        <mxCell id="Iw8bfR4sa_wHzvGIG2jI-8" value="Longuitud" style="ellipse;whiteSpace=wrap;html=1;aspect=fixed;fillColor=#e1d5e7;strokeColor=#9673a6;" vertex="1" parent="1">
          <mxGeometry x="400" y="210" width="80" height="80" as="geometry" />
        </mxCell>
        <mxCell id="Iw8bfR4sa_wHzvGIG2jI-9" value="Capacidad de perretes" style="ellipse;whiteSpace=wrap;html=1;aspect=fixed;fillColor=#e1d5e7;strokeColor=#9673a6;" vertex="1" parent="1">
          <mxGeometry x="40" y="190" width="80" height="80" as="geometry" />
        </mxCell>
        <mxCell id="Iw8bfR4sa_wHzvGIG2jI-11" value="Capacidad libre" style="ellipse;whiteSpace=wrap;html=1;aspect=fixed;fillColor=#e1d5e7;strokeColor=#9673a6;dashed=1;strokeWidth=2;" vertex="1" parent="1">
          <mxGeometry x="180" y="270" width="80" height="80" as="geometry" />
        </mxCell>
        <mxCell id="Iw8bfR4sa_wHzvGIG2jI-12" value="Perro" style="rounded=0;whiteSpace=wrap;html=1;fillColor=#e1d5e7;strokeColor=#9673a6;" vertex="1" parent="1">
          <mxGeometry x="-430" y="390" width="120" height="60" as="geometry" />
        </mxCell>
        <mxCell id="Iw8bfR4sa_wHzvGIG2jI-13" value="ID" style="ellipse;whiteSpace=wrap;html=1;aspect=fixed;fillColor=#76608a;strokeColor=#432D57;fontColor=#ffffff;" vertex="1" parent="1">
          <mxGeometry x="-460" y="270" width="80" height="80" as="geometry" />
        </mxCell>
        <mxCell id="Iw8bfR4sa_wHzvGIG2jI-14" value="Nombre" style="ellipse;whiteSpace=wrap;html=1;aspect=fixed;fillColor=#e1d5e7;strokeColor=#9673a6;" vertex="1" parent="1">
          <mxGeometry x="-360" y="270" width="80" height="80" as="geometry" />
        </mxCell>
        <mxCell id="Iw8bfR4sa_wHzvGIG2jI-15" value="Edad" style="ellipse;whiteSpace=wrap;html=1;aspect=fixed;fillColor=#e1d5e7;strokeColor=#9673a6;" vertex="1" parent="1">
          <mxGeometry x="-540" y="330" width="80" height="80" as="geometry" />
        </mxCell>
        <mxCell id="Iw8bfR4sa_wHzvGIG2jI-16" value="Raza" style="ellipse;whiteSpace=wrap;html=1;aspect=fixed;fillColor=#e1d5e7;strokeColor=#9673a6;" vertex="1" parent="1">
          <mxGeometry x="-350" y="490" width="80" height="80" as="geometry" />
        </mxCell>
        <mxCell id="Iw8bfR4sa_wHzvGIG2jI-17" value="Fecha ingreso" style="ellipse;whiteSpace=wrap;html=1;aspect=fixed;fillColor=#e1d5e7;strokeColor=#9673a6;" vertex="1" parent="1">
          <mxGeometry x="-453" y="490" width="80" height="80" as="geometry" />
        </mxCell>
        <mxCell id="Iw8bfR4sa_wHzvGIG2jI-18" value="Estado" style="ellipse;whiteSpace=wrap;html=1;aspect=fixed;fillColor=#e1d5e7;strokeColor=#9673a6;" vertex="1" parent="1">
          <mxGeometry x="-540" y="420" width="80" height="80" as="geometry" />
        </mxCell>
        <mxCell id="Iw8bfR4sa_wHzvGIG2jI-20" value="Historial de vacunación" style="ellipse;whiteSpace=wrap;html=1;aspect=fixed;fillColor=#e1d5e7;strokeColor=#9673a6;dashed=1;strokeWidth=2;" vertex="1" parent="1">
          <mxGeometry x="-240" y="380" width="80" height="80" as="geometry" />
        </mxCell>
        <mxCell id="Iw8bfR4sa_wHzvGIG2jI-21" value="Fecha vacunación" style="ellipse;whiteSpace=wrap;html=1;aspect=fixed;fillColor=#e1d5e7;strokeColor=#9673a6;" vertex="1" parent="1">
          <mxGeometry x="-140" y="440" width="80" height="80" as="geometry" />
        </mxCell>
        <mxCell id="Iw8bfR4sa_wHzvGIG2jI-22" value="Vacuna" style="ellipse;whiteSpace=wrap;html=1;aspect=fixed;fillColor=#e1d5e7;strokeColor=#9673a6;" vertex="1" parent="1">
          <mxGeometry x="-140" y="330" width="80" height="80" as="geometry" />
        </mxCell>
        <mxCell id="Iw8bfR4sa_wHzvGIG2jI-23" value="Adopción" style="rounded=0;whiteSpace=wrap;html=1;fillColor=#e1d5e7;strokeColor=#9673a6;" vertex="1" parent="1">
          <mxGeometry x="-80" y="680" width="120" height="60" as="geometry" />
        </mxCell>
        <mxCell id="Iw8bfR4sa_wHzvGIG2jI-24" value="ID" style="ellipse;whiteSpace=wrap;html=1;aspect=fixed;fillColor=#76608a;strokeColor=#432D57;fontColor=#ffffff;" vertex="1" parent="1">
          <mxGeometry x="-60" y="770" width="80" height="80" as="geometry" />
        </mxCell>
        <mxCell id="Iw8bfR4sa_wHzvGIG2jI-25" value="Fecha Inicio" style="ellipse;whiteSpace=wrap;html=1;aspect=fixed;fillColor=#e1d5e7;strokeColor=#9673a6;" vertex="1" parent="1">
          <mxGeometry x="-190" y="610" width="80" height="80" as="geometry" />
        </mxCell>
        <mxCell id="Iw8bfR4sa_wHzvGIG2jI-26" value="Fecha fin" style="ellipse;whiteSpace=wrap;html=1;aspect=fixed;fillColor=#e1d5e7;strokeColor=#9673a6;" vertex="1" parent="1">
          <mxGeometry x="-190" y="710" width="80" height="80" as="geometry" />
        </mxCell>
        <mxCell id="Iw8bfR4sa_wHzvGIG2jI-29" value="Adoptante" style="rounded=0;whiteSpace=wrap;html=1;fillColor=#e1d5e7;strokeColor=#9673a6;" vertex="1" parent="1">
          <mxGeometry x="240" y="690" width="120" height="60" as="geometry" />
        </mxCell>
        <mxCell id="Iw8bfR4sa_wHzvGIG2jI-30" value="ID" style="ellipse;whiteSpace=wrap;html=1;aspect=fixed;fillColor=#76608a;strokeColor=#432D57;fontColor=#ffffff;" vertex="1" parent="1">
          <mxGeometry x="210" y="580" width="80" height="80" as="geometry" />
        </mxCell>
        <mxCell id="Iw8bfR4sa_wHzvGIG2jI-31" value="Nombre" style="ellipse;whiteSpace=wrap;html=1;aspect=fixed;fillColor=#e1d5e7;strokeColor=#9673a6;" vertex="1" parent="1">
          <mxGeometry x="310" y="580" width="80" height="80" as="geometry" />
        </mxCell>
        <mxCell id="Iw8bfR4sa_wHzvGIG2jI-32" value="Dirección" style="ellipse;whiteSpace=wrap;html=1;aspect=fixed;fillColor=#e1d5e7;strokeColor=#9673a6;" vertex="1" parent="1">
          <mxGeometry x="390" y="670" width="80" height="80" as="geometry" />
        </mxCell>
        <mxCell id="Iw8bfR4sa_wHzvGIG2jI-33" value="Teléfono" style="ellipse;whiteSpace=wrap;html=1;aspect=fixed;fillColor=#e1d5e7;strokeColor=#9673a6;strokeWidth=1;" vertex="1" parent="1">
          <mxGeometry x="210" y="770" width="80" height="80" as="geometry" />
        </mxCell>
        <mxCell id="Iw8bfR4sa_wHzvGIG2jI-34" value="Email" style="ellipse;whiteSpace=wrap;html=1;aspect=fixed;fillColor=#e1d5e7;strokeColor=#9673a6;strokeWidth=1;" vertex="1" parent="1">
          <mxGeometry x="310" y="770" width="80" height="80" as="geometry" />
        </mxCell>
        <mxCell id="Iw8bfR4sa_wHzvGIG2jI-36" value="Empleado" style="rounded=0;whiteSpace=wrap;html=1;fillColor=#e1d5e7;strokeColor=#9673a6;" vertex="1" parent="1">
          <mxGeometry x="510" y="450" width="120" height="60" as="geometry" />
        </mxCell>
        <mxCell id="Iw8bfR4sa_wHzvGIG2jI-39" value="Nombre" style="ellipse;whiteSpace=wrap;html=1;aspect=fixed;fillColor=#e1d5e7;strokeColor=#9673a6;" vertex="1" parent="1">
          <mxGeometry x="414" y="350" width="80" height="80" as="geometry" />
        </mxCell>
        <mxCell id="Iw8bfR4sa_wHzvGIG2jI-40" value="ID" style="ellipse;whiteSpace=wrap;html=1;aspect=fixed;fillColor=#76608a;strokeColor=#432D57;fontColor=#ffffff;" vertex="1" parent="1">
          <mxGeometry x="520" y="350" width="80" height="80" as="geometry" />
        </mxCell>
        <mxCell id="Iw8bfR4sa_wHzvGIG2jI-41" value="Rol" style="ellipse;whiteSpace=wrap;html=1;aspect=fixed;fillColor=#e1d5e7;strokeColor=#9673a6;" vertex="1" parent="1">
          <mxGeometry x="620" y="350" width="80" height="80" as="geometry" />
        </mxCell>
        <mxCell id="Iw8bfR4sa_wHzvGIG2jI-42" value="Fecha contratación" style="ellipse;whiteSpace=wrap;html=1;aspect=fixed;fillColor=#e1d5e7;strokeColor=#9673a6;" vertex="1" parent="1">
          <mxGeometry x="670" y="440" width="80" height="80" as="geometry" />
        </mxCell>
        <mxCell id="Iw8bfR4sa_wHzvGIG2jI-46" value="Productividad" style="ellipse;whiteSpace=wrap;html=1;aspect=fixed;fillColor=#e1d5e7;strokeColor=#9673a6;dashed=1;strokeWidth=2;" vertex="1" parent="1">
          <mxGeometry x="590" y="540" width="80" height="80" as="geometry" />
        </mxCell>
        <mxCell id="Iw8bfR4sa_wHzvGIG2jI-48" value="Cantidad perros atendidos" style="ellipse;whiteSpace=wrap;html=1;aspect=fixed;fillColor=#e1d5e7;strokeColor=#9673a6;" vertex="1" parent="1">
          <mxGeometry x="600" y="640" width="80" height="80" as="geometry" />
        </mxCell>
      </root>
    </mxGraphModel>
  </diagram>
</mxfile>
